<?xml version="1.0" standalone="no"?>
<!DOCTYPE svg PUBLIC "-//W3C//DTD SVG 20010904//EN" "http://www.w3.org/TR/2001/REC-SVG-20010904/DTD/svg10.dtd">
<!-- Created using Krita: https://krita.org -->
<svg xmlns="http://www.w3.org/2000/svg" 
    xmlns:xlink="http://www.w3.org/1999/xlink"
    xmlns:krita="http://krita.org/namespaces/svg/krita"
    xmlns:sodipodi="http://sodipodi.sourceforge.net/DTD/sodipodi-0.dtd"
    width="235.2pt"
    height="189.6pt"
    viewBox="0 0 235.2 189.6">
<defs/>
<path id="shape0" transform="translate(9.60000000000003, 6.40754841292565)" fill="#c5a577" fill-rule="evenodd" stroke="#bfa181" stroke-width="9.36" stroke-linecap="square" stroke-linejoin="bevel" d="M110.4 45.917L100.8 52.8L110.4 85.2566L72 120L52.8 129.6L43.2 144L43.2 163.2L48 172.8L52.8 177.6L62.4 177.6L76.8 172.8L86.4 153.6L110.4 117.804L129.6 105.6L158.4 115.2L163.2 115.2L172.8 105.6L191.06 91.2L220.8 76.8L220.8 52.8L216 43.2L206.4 28.8L163.2 0L158.4 0L139.2 0L110.4 45.634L86.4 4.8L76.8 0L57.6 0C49.9698 3.2 35.5698 14.4 14.4 33.6L0 52.8L0 76.8L24 86.4L57.6 115.2L81.6 110.4" sodipodi:nodetypes="ccccccccccccccccccccccccccccccccccc"/><path id="shape1" transform="translate(100.8, 116.400001243114)" fill="#c5a577" fill-rule="evenodd" stroke="#bfa181" stroke-width="9.6" stroke-linecap="square" stroke-linejoin="bevel" d="M0 0L19.2 7.10943L38.4 28.8L62.4 67.2L76.8 67.2L88.8226 52.8L91.2 38.4L86.4 28.8L38.4 0C38.8075 1.15472 26.0075 1.15472 0 0Z" sodipodi:nodetypes="cccccccccc"/><ellipse id="shape2" transform="translate(81.6, 63.6000012431143)" rx="24" ry="26.4" cx="24" cy="26.4" fill="#bfa181" fill-rule="evenodd" stroke="#bfa181" stroke-width="9.6" stroke-linecap="square" stroke-linejoin="bevel"/><ellipse id="shape3" transform="translate(67.2, 10.8000012431143)" rx="19.2" ry="28.8" cx="19.2" cy="28.8" fill="#bfa181" fill-rule="evenodd" stroke="#bfa181" stroke-width="9.6" stroke-linecap="square" stroke-linejoin="bevel"/><circle id="shape4" transform="translate(52.8, 10.8000012431143)" r="14.4" cx="14.4" cy="14.4" fill="#bfa181" fill-rule="evenodd" stroke="#bfa181" stroke-width="9.6" stroke-linecap="square" stroke-linejoin="bevel"/><ellipse id="shape5" transform="translate(33.36, 25.2000012431143)" rx="12.96" ry="14.4" cx="12.96" cy="14.4" fill="#bfa181" fill-rule="evenodd" stroke="#bfa181" stroke-width="9.6" stroke-linecap="square" stroke-linejoin="bevel"/><ellipse id="shape6" transform="translate(14.4, 44.4000012431143)" rx="14.4" ry="16.8" cx="14.4" cy="16.8" fill="#bfa181" fill-rule="evenodd" stroke="#bfa181" stroke-width="9.6" stroke-linecap="square" stroke-linejoin="bevel"/><ellipse id="shape7" transform="translate(33.6, 54.0000012431143)" rx="31.2" ry="14.4" cx="31.2" cy="14.4" fill="#bfa181" fill-rule="evenodd" stroke="#bfa181" stroke-width="9.6" stroke-linecap="square" stroke-linejoin="bevel"/><ellipse id="shape8" transform="translate(9.6, 44.4000012431143)" rx="31.2" ry="24" cx="31.2" cy="24" fill="#bfa181" fill-rule="evenodd" stroke="#bfa181" stroke-width="9.6" stroke-linecap="square" stroke-linejoin="bevel"/><ellipse id="shape9" transform="translate(48, 82.8000012431143)" rx="19.2" ry="12" cx="19.2" cy="12" fill="#bfa181" fill-rule="evenodd" stroke="#bfa181" stroke-width="9.6" stroke-linecap="square" stroke-linejoin="bevel"/><ellipse id="shape10" transform="translate(65.04, 97.2000012431143)" rx="10.68" ry="9.59999999999999" cx="10.68" cy="9.59999999999999" fill="#bfa181" fill-rule="evenodd" stroke="#bfa181" stroke-width="9.6" stroke-linecap="square" stroke-linejoin="bevel"/><circle id="shape11" transform="translate(110.4, 49.2000012431143)" r="14.4" cx="14.4" cy="14.4" fill="#bfa181" fill-rule="evenodd" stroke="#bfa181" stroke-width="9.6" stroke-linecap="square" stroke-linejoin="bevel"/><circle id="shape12" transform="translate(134.4, 25.2000012431143)" r="12" cx="12" cy="12" fill="#bfa181" fill-rule="evenodd" stroke="#bfa181" stroke-width="9.6" stroke-linecap="square" stroke-linejoin="bevel"/><ellipse id="shape13" transform="translate(148.8, 15.6000012431143)" rx="9.60000000000001" ry="4.8" cx="9.60000000000001" cy="4.8" fill="#bfa181" fill-rule="evenodd" stroke="#bfa181" stroke-width="9.6" stroke-linecap="square" stroke-linejoin="bevel"/><ellipse id="shape14" transform="translate(144, 15.6000012431143)" rx="14.4" ry="7.2" cx="14.4" cy="7.2" fill="#bfa181" fill-rule="evenodd" stroke="#bfa181" stroke-width="9.6" stroke-linecap="square" stroke-linejoin="bevel"/><ellipse id="shape15" transform="translate(168, 10.8000012431143)" rx="4.8" ry="7.2" cx="4.8" cy="7.2" fill="#bfa181" fill-rule="evenodd" stroke="#bfa181" stroke-width="9.6" stroke-linecap="square" stroke-linejoin="bevel"/><ellipse id="shape16" transform="translate(139.2, 30.0000012431143)" rx="16.8" ry="21.6" cx="16.8" cy="21.6" fill="#bfa181" fill-rule="evenodd" stroke="#bfa181" stroke-width="9.6" stroke-linecap="square" stroke-linejoin="bevel"/><ellipse id="shape17" transform="translate(124.8, 44.4000012431143)" rx="26.4" ry="31.2" cx="26.4" cy="31.2" fill="#bfa181" fill-rule="evenodd" stroke="#bfa181" stroke-width="9.6" stroke-linecap="square" stroke-linejoin="bevel"/><ellipse id="shape18" transform="translate(124.8, 87.6000012431143)" rx="14.4" ry="12" cx="14.4" cy="12" fill="#bfa181" fill-rule="evenodd" stroke="#bfa181" stroke-width="9.6" stroke-linecap="square" stroke-linejoin="bevel"/><ellipse id="shape19" transform="translate(156, 78.0000012431143)" rx="15.48" ry="19.2" cx="15.48" cy="19.2" fill="#bfa181" fill-rule="evenodd" stroke="#bfa181" stroke-width="9.6" stroke-linecap="square" stroke-linejoin="bevel"/><ellipse id="shape20" transform="translate(173.04, 63.6000012431143)" rx="16.56" ry="19.2" cx="16.56" cy="19.2" fill="#bfa181" fill-rule="evenodd" stroke="#bfa181" stroke-width="9.6" stroke-linecap="square" stroke-linejoin="bevel"/><ellipse id="shape21" transform="translate(172.8, 39.6000012431143)" rx="7.2" ry="14.4" cx="7.2" cy="14.4" fill="#bfa181" fill-rule="evenodd" stroke="#bfa181" stroke-width="9.6" stroke-linecap="square" stroke-linejoin="bevel"/><ellipse id="shape22" transform="translate(172.8, 20.4000012431143)" rx="9.60000000000001" ry="9.6" cx="9.60000000000001" cy="9.6" fill="#bfa181" fill-rule="evenodd" stroke="#bfa181" stroke-width="9.6" stroke-linecap="square" stroke-linejoin="bevel"/><ellipse id="shape23" transform="translate(192, 25.2000012431143)" rx="2.39999999999999" ry="16.8" cx="2.39999999999999" cy="16.8" fill="#bfa181" fill-rule="evenodd" stroke="#bfa181" stroke-width="9.6" stroke-linecap="square" stroke-linejoin="bevel"/><ellipse id="shape24" transform="translate(192, 30.0000012431143)" rx="7.19999999999999" ry="16.8" cx="7.19999999999999" cy="16.8" fill="#bfa181" fill-rule="evenodd" stroke="#bfa181" stroke-width="9.6" stroke-linecap="square" stroke-linejoin="bevel"/><ellipse id="shape25" transform="translate(203.76, 39.6000012431143)" rx="6.11999999999999" ry="14.4" cx="6.11999999999999" cy="14.4" fill="#bfa181" fill-rule="evenodd" stroke="#bfa181" stroke-width="9.6" stroke-linecap="square" stroke-linejoin="bevel"/><ellipse id="shape26" transform="translate(206.4, 54.0000012431143)" rx="9.60000000000001" ry="14.4" cx="9.60000000000001" cy="14.4" fill="#bfa181" fill-rule="evenodd" stroke="#bfa181" stroke-width="9.6" stroke-linecap="square" stroke-linejoin="bevel"/><ellipse id="shape27" transform="translate(129.6, 116.400001243114)" rx="9.59999999999999" ry="9.60000000000001" cx="9.59999999999999" cy="9.60000000000001" fill="#bfa181" fill-rule="evenodd" stroke="#bfa181" stroke-width="9.6" stroke-linecap="square" stroke-linejoin="bevel"/><ellipse id="shape28" transform="translate(144, 130.800001243114)" rx="9.59999999999999" ry="12" cx="9.59999999999999" cy="12" fill="#bfa181" fill-rule="evenodd" stroke="#bfa181" stroke-width="9.6" stroke-linecap="square" stroke-linejoin="bevel"/><ellipse id="shape29" transform="translate(153.6, 150.000001243114)" rx="9.59999999999999" ry="12" cx="9.59999999999999" cy="12" fill="#bfa181" fill-rule="evenodd" stroke="#bfa181" stroke-width="9.6" stroke-linecap="square" stroke-linejoin="bevel"/><ellipse id="shape30" transform="translate(167.76, 140.400001243114)" rx="8.28" ry="16.8" cx="8.28" cy="16.8" fill="#bfa181" fill-rule="evenodd" stroke="#bfa181" stroke-width="9.6" stroke-linecap="square" stroke-linejoin="bevel"/><circle id="shape31" transform="translate(163.2, 164.400001243114)" r="7.2" cx="7.2" cy="7.2" fill="#bfa181" fill-rule="evenodd" stroke="#bfa181" stroke-width="9.6" stroke-linecap="square" stroke-linejoin="bevel"/><ellipse id="shape32" transform="translate(86.4, 116.400001243114)" rx="9.6" ry="14.4" cx="9.6" cy="14.4" fill="#bfa181" fill-rule="evenodd" stroke="#bfa181" stroke-width="9.6" stroke-linecap="square" stroke-linejoin="bevel"/><circle id="shape33" transform="translate(57.6, 135.600001243114)" r="14.4" cx="14.4" cy="14.4" fill="#bfa181" fill-rule="evenodd" stroke="#bfa181" stroke-width="9.6" stroke-linecap="square" stroke-linejoin="bevel"/><ellipse id="shape34" transform="translate(67.2, 154.800001243114)" rx="7.2" ry="12" cx="7.2" cy="12" fill="#bfa181" fill-rule="evenodd" stroke="#bfa181" stroke-width="9.6" stroke-linecap="square" stroke-linejoin="bevel"/><ellipse id="shape35" transform="translate(57.6, 159.600001243114)" rx="2.4" ry="9.59999999999999" cx="2.4" cy="9.59999999999999" fill="#bfa181" fill-rule="evenodd" stroke="#bfa181" stroke-width="9.6" stroke-linecap="square" stroke-linejoin="bevel"/><ellipse id="shape36" transform="translate(81.6, 140.400001243114)" rx="7.2" ry="12" cx="7.2" cy="12" fill="#bfa181" fill-rule="evenodd" stroke="#bfa181" stroke-width="9.6" stroke-linecap="square" stroke-linejoin="bevel"/><path id="shape37" transform="translate(16.8, 8.40000124311429)" fill="#a0805e" fill-rule="evenodd" stroke-opacity="0" stroke="#000000" stroke-width="0" stroke-linecap="square" stroke-linejoin="bevel" d="M0 72L0 52.8L19.2 24L43.2 4.8L62.4 0L76.8 4.8L100.8 47.3321L115.2 100.8L168 139.2L165.894 158.4L158.4 168L148.8 168L124.8 134.4L105.6 115.2L91.2 100.8L86.4 96L55.234 105.6L43.2 96L24 81.6C25.3887 82.5283 17.3887 79.3283 0 72Z" sodipodi:nodetypes="cccccccccccccccccccc"/><path id="shape38" transform="translate(52.8, 44.0955898273617)" fill="#0f243d" fill-rule="evenodd" stroke-opacity="0" stroke="#000000" stroke-width="0" stroke-linecap="square" stroke-linejoin="bevel" d="M0 5.10441L43.2 48.3044L48 43.5044L9.6 0.304412L0 0.304412C1.40377 -0.729551 1.40377 0.870449 0 5.10441Z" sodipodi:nodetypes="cccccc"/><path id="shape39" transform="translate(76.8, 39.1018877855671)" fill="#0f243d" fill-rule="evenodd" stroke-opacity="0" stroke="#000000" stroke-width="0" stroke-linecap="square" stroke-linejoin="bevel" d="M0 0.498113L28.8 29.2981L28.8 19.6981L9.6 0.498113C9.92453 -0.166038 6.72453 -0.166038 0 0.498113Z" sodipodi:nodetypes="ccccc"/><path id="shape40" transform="translate(48, 63.6000012431143)" fill="#0f243d" fill-rule="evenodd" stroke-opacity="0" stroke="#000000" stroke-width="0" stroke-linecap="square" stroke-linejoin="bevel" d="M2.66038 0L0 9.6L24 33.6L33.6 28.8C33.7283 30.1057 23.4151 20.5057 2.66038 0Z" sodipodi:nodetypes="ccccc"/><path id="shape41" transform="translate(55.2, 8.40000124311429)" fill="#a0805e" fill-rule="evenodd" stroke-opacity="0" stroke="#000000" stroke-width="0" stroke-linecap="square" stroke-linejoin="bevel" d="M14.4 129.6L24 124.8L35.7849 115.2L57.6 96L72 81.6L67.2 77.0491L62.4 62.4L62.4 52.8L86.4 19.2L96 4.8L112.483 0L139.2 19.2L153.6 28.8L168 48L168 72L130.596 91.2L120 100.8L115.2 105.6L110.4 105.6L105.6 105.6L100.8 105.6L84.1811 96L57.6 120L38.4 148.8L33.6 158.4L33.6 163.2L14.4 168L9.6 153.6L4.8 158.4L0 153.6L0 144L4.8 134.4C4.32453 134.845 7.52453 133.245 14.4 129.6Z" sodipodi:nodetypes="ccccccccccccccccccccccccccccccccc"/><path id="shape42" transform="translate(132.452830188679, 39.6000012431143)" fill="#0f243d" fill-rule="evenodd" stroke-opacity="0" stroke="#000000" stroke-width="0" stroke-linecap="square" stroke-linejoin="bevel" d="M0 24L21.1472 0L30.7472 0L1.94717 28.8" sodipodi:nodetypes="cccc"/><path id="shape43" transform="translate(139.2, 43.1474500500081)" fill="#0f243d" fill-rule="evenodd" stroke-opacity="0" stroke="#000000" stroke-width="0" stroke-linecap="square" stroke-linejoin="bevel" d="M0 38.5051L4.8 48.1051L48 4.90512L48 0.105118L43.2 0.105118C42.166 -1.3062 27.766 11.4938 0 38.5051Z" sodipodi:nodetypes="cccccc"/><path id="shape44" transform="translate(158.4, 63.6000012431143)" fill="#0f243d" fill-rule="evenodd" stroke-opacity="0" stroke="#000000" stroke-width="0" stroke-linecap="square" stroke-linejoin="bevel" d="M0 28.8L33.6 0L33.6 9.6L9.6 33.6C8.73208 32.8377 5.53208 31.2377 0 28.8Z" sodipodi:nodetypes="ccccc"/>
</svg>
